<?xml version="1.0" encoding="UTF-8" standalone="no"?>
<svg
   xmlns:dc="http://purl.org/dc/elements/1.1/"
   xmlns:cc="http://creativecommons.org/ns#"
   xmlns:rdf="http://www.w3.org/1999/02/22-rdf-syntax-ns#"
   xmlns:svg="http://www.w3.org/2000/svg"
   xmlns="http://www.w3.org/2000/svg"
   xmlns:sodipodi="http://sodipodi.sourceforge.net/DTD/sodipodi-0.dtd"
   xmlns:inkscape="http://www.inkscape.org/namespaces/inkscape"
   version="1.1"
   id="svg2"
   xml:space="preserve"
   width="666.66669"
   height="666.66669"
   viewBox="0 0 666.66669 666.66669"
   sodipodi:docname="avatar_with_mask.svg"
   inkscape:version="1.0.2 (e86c870879, 2021-01-15)"><metadata
     id="metadata8"><rdf:RDF><cc:Work
         rdf:about=""><dc:format>image/svg+xml</dc:format><dc:type
           rdf:resource="http://purl.org/dc/dcmitype/StillImage" /><dc:title></dc:title></cc:Work></rdf:RDF></metadata><defs
     id="defs6"><inkscape:path-effect
       effect="bspline"
       id="path-effect2746"
       is_visible="true"
       lpeversion="1"
       weight="33.333333"
       steps="2"
       helper_size="0"
       apply_no_weight="true"
       apply_with_weight="true"
       only_selected="false" /><inkscape:path-effect
       effect="bspline"
       id="path-effect2742"
       is_visible="true"
       lpeversion="1"
       weight="33.333333"
       steps="2"
       helper_size="0"
       apply_no_weight="true"
       apply_with_weight="true"
       only_selected="false" /><clipPath
       clipPathUnits="userSpaceOnUse"
       id="clipPath66"><path
         d="m 757.945,4187.69 c 0,0 95.743,52.33 229.785,49.79 134.04,-2.56 233.62,-53.62 233.62,-53.62 0,0 -40.85,-233.62 -240.002,-248.94 -199.153,-15.32 -223.403,252.77 -223.403,252.77"
         id="path64" /></clipPath><mask
       maskUnits="userSpaceOnUse"
       id="mask2736"><path
         id="path2738"
         style="fill:#a3d3c4;fill-opacity:1;stroke-width:8.40473;stroke-linecap:round"
         d="m 204.04357,380.91889 a 88.220342,88.220342 0 0 1 -88.22022,-88.22021 88.220342,88.220342 0 0 1 8.4961,-37.77394 88.220342,88.220342 0 0 1 -3.84082,-25.74609 88.220342,88.220342 0 0 1 88.22021,-88.22022 88.220342,88.220342 0 0 1 88.22022,88.22022 88.220342,88.220342 0 0 1 -8.49609,37.77246 88.220342,88.220342 0 0 1 3.84081,25.74757 88.220342,88.220342 0 0 1 -88.22021,88.22021 z" /></mask></defs><sodipodi:namedview
     pagecolor="#ffffff"
     bordercolor="#666666"
     borderopacity="1"
     objecttolerance="10"
     gridtolerance="10"
     guidetolerance="10"
     inkscape:pageopacity="0"
     inkscape:pageshadow="2"
     inkscape:window-width="1920"
     inkscape:window-height="1080"
     id="namedview4"
     showgrid="false"
     inkscape:zoom="0.78846646"
     inkscape:cx="74.430809"
     inkscape:cy="356.1332"
     inkscape:window-x="0"
     inkscape:window-y="0"
     inkscape:window-maximized="0"
     inkscape:current-layer="g10" /><g
     id="g10"
     inkscape:groupmode="layer"
     inkscape:label="ink_ext_XXXXXX"
     transform="matrix(1.3333333,0,0,-1.3333333,0,666.66667)"><g
       id="g2727"
       transform="matrix(2.005416,0,0,2.005416,-167.38248,-271.35507)"
       mask="url(#mask2736)"
       style="opacity:1"><path
         d="m 268.44795,234.15072 c -1.532,7.148 -10.213,16.595 -10.213,16.595 0,0 -19.66,17.107 -27.063,17.617 -7.405,0.511 -37.6659,-1.059 -37.6659,-1.059 0,0 -23.8668,-7.877 -31.0156,-16.047 0,0 -10.9785,-5.873 -12.7656,-35.489 -1.7875,-29.61679 0.5101,-55.65979 12,-65.36289 0.6902,-0.5832 2.157,-0.8563 3.9383,-0.9461 l -1.8957,-8.7559 96.4715,0.1278 0.113,14.507 c 1.639,0.507 2.926,1.1102 3.628,1.834 15.254,15.7211 6,69.82909 4.468,76.97909"
         style="fill:#86c9b5;fill-opacity:1;fill-rule:nonzero;stroke:none;stroke-width:0.1"
         id="path2583" /><path
         d="m 229.43595,267.30372 c 0,0 -11.797,-19.749 -16.3072,-19.86 -9.5535,-0.236 -19.6227,19.86 -19.6227,19.86 0,0 1.875,1.429 3.9196,7.211 1.4375,4.064 2.4828,9.965 2.6586,13.692 0.1058,2.253 0.8617,3.701 0.8617,3.701 h 21.621 c 0,0 0.287,-1.365 0.73,-3.546 0.455,-2.27 1.065,-5.42 1.676,-8.869 1.197,-6.775 4.463,-12.189 4.463,-12.189"
         style="fill:#f2f2f2;fill-opacity:1;fill-rule:nonzero;stroke:none;stroke-width:0.1"
         id="path2585" /><path
         d="m 223.29695,288.36172 c -0.934,-2.788 -2.55,-5.343 -4.729,-7.415 -0.873,-0.836 -1.843,-1.586 -2.9689,-2.092 -3.7828,-1.719 -8.5238,-0.166 -11.409,2.698 -1.9156,1.895 -3.1484,4.241 -4.1058,6.654 0.5261,2.193 0.8617,3.701 0.8617,3.701 h 2.9449 c 0.2637,-0.021 0.491,-0.032 0.6586,-0.021 0.0719,0 0.1555,0.011 0.2871,0.021 h 17.7304 c 0,0 0.287,-1.365 0.73,-3.546"
         style="fill:#b3b3b3;fill-opacity:1;fill-rule:nonzero;stroke:none;stroke-width:0.1"
         id="path2587" /><path
         d="m 176.78965,334.66872 c -0.0425,-1.206 0.143,-2.417 0.009,-3.616 -0.3547,-3.159 -2.864,-5.8 -3.0613,-8.974 -0.2074,-3.344 2.166,-6.232 4.3977,-8.732 1.7742,-1.988 3.5488,-3.977 5.3226,-5.965 0.8703,-0.976 1.9699,-2.041 3.2645,-1.857 1.775,0.25 2.3375,2.507 2.4425,4.296 0.4442,7.549 0.1137,15.192 1.6348,22.599 0.5031,2.451 1.2106,4.963 0.7168,7.416 -1.9277,9.578 -14.4922,1.521 -14.7262,-5.167"
         style="fill:#333333;fill-opacity:1;fill-rule:nonzero;stroke:none;stroke-width:0.1"
         id="path2589" /><path
         d="m 244.22695,342.27572 c 0.747,-3.475 -1.108,-7.039 -0.75,-10.576 0.251,-2.476 1.572,-4.753 1.802,-7.231 0.369,-3.964 -2.503,-7.979 -6.374,-8.908 -0.435,-0.106 -0.927,-0.166 -1.301,0.079 -0.279,0.181 -0.436,0.498 -0.573,0.802 -3.03,6.712 -2.721,14.507 -5.39,21.372 -0.29,0.747 -0.62,1.498 -0.67,2.299 -0.058,0.917 0.256,1.814 0.575,2.677 1.094,2.965 1.832,7.635 5.883,6.33 3.075,-0.989 6.102,-3.606 6.798,-6.844"
         style="fill:#333333;fill-opacity:1;fill-rule:nonzero;stroke:none;stroke-width:0.1"
         id="path2591" /><path
         d="m 236.66495,307.44272 c -0.072,-0.322 -0.162,-0.661 -0.253,-0.981 -2.187,-7.972 -7.557,-15.641 -14.95,-19.582 -7.8645,-4.19 -17.3738,-2.426 -23.9184,3.406 -5.3148,4.744 -8.8222,11.663 -10.3949,18.851 -0.8316,3.655 -1.139,7.401 -0.9398,10.95 0.6687,12.056 7.05,25.377 19.0004,29.747 2.964,1.088 6.2726,1.658 9.5629,1.587 3.9048,-0.089 7.7738,-1.088 10.9558,-3.228 4.519,-3.032 7.738,-7.651 9.599,-12.698 3.201,-8.667 3.526,-19.099 1.338,-28.052"
         style="opacity:1;fill:#f2f2f2;fill-opacity:1;fill-rule:nonzero;stroke:none;stroke-width:0.1"
         id="path2593" /><path
         d="m 236.13495,316.34672 c 0.486,2.029 3.743,4.502 5.316,5.057 4.644,1.638 7.387,-4.598 6.302,-9.063 -0.932,-3.834 -3.843,-7.442 -7.107,-8.847 -1.041,-0.447 -7.835,-1.055 -7.887,-1.27 l 3.376,14.123"
         style="fill:#f2f2f2;fill-opacity:1;fill-rule:nonzero;stroke:none;stroke-width:0.1"
         id="path2595" /><path
         d="m 238.17995,314.73372 c 0.391,1.489 1.087,2.943 2.283,3.863 0.694,0.536 1.602,0.854 2.474,0.853 0.615,0 1.21,-0.156 1.71,-0.495 0.729,-0.493 1.198,-1.325 1.397,-2.2 0.098,-0.431 0.137,-0.875 0.137,-1.324 0,-0.465 -0.042,-0.936 -0.102,-1.404 -0.387,-3.012 -1.619,-6.043 -4.015,-7.888 -0.945,-0.73 -2.146,-1.25 -3.292,-1.248 -0.421,0 -0.834,0.068 -1.23,0.219 -0.114,0.044 -0.242,-0.014 -0.286,-0.128 -0.043,-0.114 0.014,-0.242 0.128,-0.285 0.451,-0.172 0.919,-0.249 1.388,-0.249 1.28,0.002 2.555,0.566 3.562,1.341 2.525,1.95 3.785,5.095 4.183,8.181 0.062,0.48 0.106,0.97 0.107,1.461 0,0.475 -0.042,0.952 -0.149,1.422 -0.219,0.959 -0.733,1.892 -1.58,2.468 -0.584,0.396 -1.269,0.572 -1.958,0.571 -0.978,0 -1.97,-0.349 -2.744,-0.945 -1.309,-1.011 -2.034,-2.56 -2.441,-4.1 -0.031,-0.119 0.04,-0.239 0.158,-0.271 0.118,-0.031 0.239,0.04 0.27,0.158"
         style="fill:#281b1e;fill-opacity:1;fill-rule:nonzero;stroke:none;stroke-width:0.1"
         id="path2597" /><path
         d="m 240.56295,305.04972 c -0.428,1.911 -0.641,3.868 -0.641,5.825 0,2.771 0.427,5.541 1.274,8.183 0.037,0.116 -0.027,0.241 -0.143,0.278 -0.116,0.037 -0.241,-0.027 -0.278,-0.143 -0.862,-2.686 -1.295,-5.502 -1.295,-8.318 0,-1.989 0.216,-3.979 0.652,-5.922 0.026,-0.119 0.144,-0.194 0.264,-0.168 0.119,0.027 0.194,0.145 0.167,0.264"
         style="fill:#281b1e;fill-opacity:1;fill-rule:nonzero;stroke:none;stroke-width:0.1"
         id="path2599" /><path
         d="m 188.26355,317.03872 c -0.4856,2.03 -3.743,4.501 -5.3157,5.056 -4.6445,1.639 -7.3871,-4.597 -6.3023,-9.063 0.932,-3.834 3.8434,-7.441 7.1074,-8.845 1.0414,-0.449 7.8352,-1.056 7.8863,-1.272 l -3.3757,14.124"
         style="fill:#f2f2f2;fill-opacity:1;fill-rule:nonzero;stroke:none;stroke-width:0.1"
         id="path2601" /><path
         d="m 186.85645,315.53772 c -0.4062,1.541 -1.1312,3.09 -2.4398,4.101 -0.7746,0.596 -1.7668,0.944 -2.7445,0.945 -0.6899,0 -1.375,-0.175 -1.9586,-0.572 v 0 c -0.8465,-0.574 -1.361,-1.508 -1.5797,-2.467 -0.1074,-0.47 -0.1489,-0.947 -0.1489,-1.422 4e-4,-0.491 0.0446,-0.981 0.1063,-1.461 0.3988,-3.087 1.6578,-6.232 4.1828,-8.182 1.007,-0.775 2.2824,-1.338 3.5621,-1.339 0.4688,0 0.9371,0.076 1.3883,0.248 0.1141,0.044 0.1715,0.172 0.1277,0.286 -0.0433,0.114 -0.1711,0.171 -0.2851,0.128 -0.3965,-0.152 -0.8102,-0.22 -1.2309,-0.22 -1.1465,-0.002 -2.3469,0.518 -3.2918,1.248 -2.3961,1.845 -3.6269,4.876 -4.0144,7.888 -0.0606,0.469 -0.1024,0.939 -0.1024,1.404 0,0.449 0.0391,0.893 0.1371,1.324 0.1993,0.875 0.6692,1.708 1.3969,2.199 v 0 c 0.5004,0.34 1.0949,0.496 1.7106,0.496 0.8714,10e-4 1.78,-0.317 2.4742,-0.853 1.1953,-0.92 1.891,-2.375 2.2824,-3.864 0.0312,-0.118 0.152,-0.188 0.2703,-0.157 0.118,0.031 0.1887,0.152 0.1574,0.27"
         style="fill:#281b1e;fill-opacity:1;fill-rule:nonzero;stroke:none;stroke-width:0.1"
         id="path2603" /><path
         d="m 183.41275,319.74972 c 0.8472,-2.641 1.2738,-5.412 1.2738,-8.182 0,-1.958 -0.2129,-3.915 -0.641,-5.826 -0.0266,-0.119 0.0484,-0.238 0.1676,-0.264 0.1191,-0.027 0.2375,0.048 0.264,0.167 0.4352,1.944 0.6516,3.933 0.6516,5.923 0,2.815 -0.4336,5.631 -1.2949,8.317 -0.0375,0.116 -0.1617,0.181 -0.2781,0.143 -0.1165,-0.037 -0.1805,-0.162 -0.143,-0.278"
         style="fill:#281b1e;fill-opacity:1;fill-rule:nonzero;stroke:none;stroke-width:0.1"
         id="path2605" /><path
         d="m 194.15415,325.10772 c -0.4031,-0.44 -0.7207,-0.945 -0.707,-1.473 0.0128,-0.528 0.4261,-1.075 1.1117,-1.25 0.5918,-0.15 1.2394,-0.007 1.8386,0.127 2.1739,0.485 4.3993,0.851 6.6493,1.089 1.0695,0.114 2.3074,0.276 2.8195,0.969 0.4383,0.591 0.1102,1.367 -0.5551,1.835 -0.6656,0.467 -1.5898,0.683 -2.4972,0.815 -3.2922,0.476 -6.6848,0.043 -8.6598,-2.112"
         style="fill:#281b1e;fill-opacity:1;fill-rule:nonzero;stroke:none;stroke-width:0.1"
         id="path2607" /><path
         d="m 230.25195,325.20772 c 0.403,-0.441 0.721,-0.95 0.708,-1.481 -0.014,-0.531 -0.427,-1.081 -1.113,-1.256 -0.591,-0.151 -1.239,-0.008 -1.839,0.127 -2.173,0.488 -4.398,0.855 -6.648,1.096 -1.07,0.114 -2.308,0.277 -2.82,0.972 -0.438,0.596 -0.11,1.375 0.555,1.846 0.665,0.47 1.59,0.687 2.497,0.819 3.293,0.48 6.685,0.044 8.66,-2.123"
         style="fill:#281b1e;fill-opacity:1;fill-rule:nonzero;stroke:none;stroke-width:0.1"
         id="path2609" /><path
         d="m 203.69715,317.43572 c -0.0582,-1.011 -0.9247,-1.782 -1.9348,-1.724 -1.0109,0.058 -1.7828,0.924 -1.7246,1.935 0.0586,1.01 0.925,1.782 1.9351,1.724 1.0102,-0.058 1.7829,-0.925 1.7243,-1.935"
         style="fill:#281b1e;fill-opacity:1;fill-rule:nonzero;stroke:none;stroke-width:0.1"
         id="path2611" /><path
         d="m 224.06495,317.61872 c -0.058,-1.01 -0.925,-1.782 -1.935,-1.723 -1.011,0.057 -1.783,0.924 -1.725,1.934 0.059,1.011 0.925,1.783 1.936,1.725 1.01,-0.059 1.782,-0.925 1.724,-1.936"
         style="fill:#281b1e;fill-opacity:1;fill-rule:nonzero;stroke:none;stroke-width:0.1"
         id="path2613" /><path
         d="m 208.87715,322.93072 c 0.6926,-0.769 0.9485,-1.878 0.9477,-2.964 l -8e-4,-0.099 c -0.0148,-1.12 -0.2644,-2.246 -0.3723,-3.411 -0.0507,-0.555 -0.0675,-1.11 -0.0675,-1.664 0,-1.091 0.0644,-2.177 0.0644,-3.247 0,-0.938 -0.0492,-1.862 -0.2301,-2.769 -0.1664,-0.84 -0.4621,-1.698 -0.4746,-2.623 l -4e-4,-0.041 c 0.002,-0.917 0.3559,-1.93 1.2215,-2.4 h 4e-4 c 0.5098,-0.27 1.0684,-0.29 1.5828,-0.327 0.518,-0.035 0.9867,-0.087 1.3469,-0.329 0.1023,-0.069 0.2406,-0.041 0.309,0.062 0.0683,0.102 0.0406,0.241 -0.0617,0.309 -0.4871,0.322 -1.0434,0.365 -1.5629,0.403 -0.5235,0.035 -1.0156,0.066 -1.4043,0.275 h 4e-4 c -0.6574,0.344 -0.9875,1.194 -0.986,2.007 l 4e-4,0.036 c 0.008,0.829 0.2883,1.662 0.4657,2.541 0.1894,0.948 0.239,1.903 0.239,2.856 -4e-4,1.088 -0.0644,2.174 -0.0644,3.247 0,0.545 0.0164,1.086 0.0656,1.623 0.1023,1.127 0.3566,2.264 0.3742,3.445 l 8e-4,0.106 c -8e-4,1.151 -0.2641,2.37 -1.0617,3.262 -0.0825,0.092 -0.2235,0.1 -0.3153,0.017 -0.0914,-0.082 -0.0992,-0.223 -0.0168,-0.315"
         style="fill:#281b1e;fill-opacity:1;fill-rule:nonzero;stroke:none;stroke-width:0.1"
         id="path2615" /><path
         d="m 183.36585,360.94572 c -3.9336,-2.985 -6.3277,-8.296 -4.9016,-13.023 0.5872,-1.945 1.7469,-3.658 2.8903,-5.338 1.8437,-2.708 4.1172,-5.68 7.3808,-5.966 4.2727,-0.373 7.6532,4.083 11.9356,4.3 2.1445,0.108 4.1844,-0.873 6.307,-1.194 2.9043,-0.44 5.982,0.43 8.2274,2.325 2.4256,2.047 4.2346,5.365 7.3936,5.667 1.943,0.186 3.79,-0.912 5.218,-2.243 1.426,-1.332 2.599,-2.934 4.132,-4.142 0.265,-0.208 0.556,-0.411 0.891,-0.451 1.006,-0.121 1.533,1.145 1.718,2.142 0.719,3.893 1.349,8.127 -0.477,11.639 -1.704,3.278 -5.189,5.199 -8.601,6.613 -1.68,0.696 -3.405,1.321 -5.203,1.588 -5.1087,0.76 -10.4787,-1.394 -15.4052,0.156 -3.8922,1.225 -6.7586,1.969 -10.8746,1.636 -3.7789,-0.308 -7.5778,-1.393 -10.6313,-3.709"
         style="fill:#333333;fill-opacity:1;fill-rule:nonzero;stroke:none;stroke-width:0.1"
         id="path2617" /><path
         d="m 229.89395,340.72172 c -0.754,-2.145 -1.117,-4.613 -0.054,-6.623 1.065,-2.016 3.39,-3.229 4.149,-5.379 0.583,-1.651 0.111,-3.532 0.686,-5.187 0.511,-1.471 1.766,-2.539 2.966,-3.531 0.238,-0.197 0.552,-0.406 0.832,-0.275 0.201,0.094 0.29,0.325 0.36,0.535 1.707,5.168 2.429,10.66 2.114,16.093 -0.158,2.738 -0.613,5.558 -2.12,7.849 -0.905,1.377 -4.099,4.421 -6.034,3.396 -1.396,-0.738 -2.383,-5.407 -2.899,-6.878"
         style="fill:#333333;fill-opacity:1;fill-rule:nonzero;stroke:none;stroke-width:0.1"
         id="path2619" /><path
         d="m 190.35065,327.76272 c -0.3324,-1.495 -0.3903,-3.049 -0.8254,-4.517 -0.5715,-1.926 -1.7602,-3.6 -2.9285,-5.234 -3.0668,3.939 -3.9125,9.206 -3.686,14.193 0.1867,4.113 2.7563,14.715 9.0664,11.272 5.9262,-3.235 -0.6797,-11.456 -1.6265,-15.714"
         style="fill:#333333;fill-opacity:1;fill-rule:nonzero;stroke:none;stroke-width:0.1"
         id="path2621" /><path
         d="m 234.14095,317.16872 c -0.01,-0.396 -0.017,-0.806 0.132,-1.173 0.149,-0.367 0.499,-0.683 0.895,-0.664 0.242,0.013 0.461,0.144 0.654,0.29 1.444,1.098 1.877,3.036 2.671,4.666 0.77,1.579 1.938,2.946 2.63,4.561 0.275,0.642 0.474,1.346 0.37,2.037 -0.179,1.198 -1.305,2.132 -2.51,2.257 -5.862,0.609 -4.761,-8.724 -4.842,-11.974"
         style="fill:#333333;fill-opacity:1;fill-rule:nonzero;stroke:none;stroke-width:0.1"
         id="path2623" /><path
         d="m 186.57835,316.27772 c 0.2008,-0.748 0.6512,-1.674 1.418,-1.568 0.2715,0.038 0.5047,0.211 0.6976,0.405 0.8813,0.888 1.1012,2.221 1.2399,3.464 0.2484,2.239 0.3769,4.49 0.3832,6.742 0.002,0.669 -0.0117,1.362 -0.2887,1.972 -0.1269,0.278 -0.3101,0.536 -0.557,0.716 -0.3121,0.227 -0.7074,0.316 -1.0926,0.316 -1.4453,10e-4 -2.6734,-1.192 -3.1801,-2.545 -1.1668,-3.12 0.568,-6.484 1.3797,-9.502"
         style="fill:#333333;fill-opacity:1;fill-rule:nonzero;stroke:none;stroke-width:0.1"
         id="path2625" /><path
         d="m 236.14695,309.84772 c 0,0 -0.01,-0.191 -0.07,-0.58 v -0.021 c -0.05,-0.42 -0.17,-1.069 -0.39,-1.96 l -0.011,-0.029 c -0.049,-0.23 -0.119,-0.48 -0.189,-0.75 -0.041,-0.15 -0.08,-0.301 -0.13,-0.46 -0.161,-0.56 -0.36,-1.2 -0.59,-1.9 l -1.571,-3.79 -0.439,-1.071 -0.311,-0.739 -0.579,-1.4 v -0.01 c -0.8,-1.34 -1.72,-2.681 -2.78,-3.981 -0.18,-0.219 -0.35,-0.429 -0.54,-0.639 -0.16,-0.191 -0.32,-0.37 -0.49,-0.55 -0.08,-0.101 -0.17,-0.19 -0.26,-0.28 -0.14,-0.16 -0.29,-0.321 -0.45,-0.47 -1.631,-1.67 -3.53,-3.17 -5.73,-4.37 -2.05,-1.13 -4.38,-1.981 -6.9905,-2.441 -0.6,-0.109 -1.2196,-0.2 -1.85,-0.259 h -0.01 c -0.2301,-0.02 -0.45,-0.05 -0.6801,-0.071 -0.4898,-0.029 -0.9601,-0.049 -1.4199,-0.059 h -0.2797 c -0.25,0 -0.5,0.01 -0.75,0.019 -1.2203,0.04 -2.3605,0.201 -3.4305,0.451 -0.8597,0.209 -1.68,0.459 -2.45,0.79 -0.9199,0.37 -1.7797,0.82 -2.5898,1.32 -3.4102,2.149 -5.8699,5.41 -7.6301,8.79 -0.25,0.47 -0.4797,0.96 -0.7,1.43 -0.0398,0.089 -0.0801,0.179 -0.1301,0.27 -0.0695,0.18 -0.1496,0.35 -0.2297,0.52 -0.1203,0.29 -0.2402,0.57 -0.3503,0.849 -0.0297,0.101 -0.0797,0.181 -0.1098,0.271 l -0.05,0.12 c -0.0996,0.269 -0.2,0.54 -0.3,0.8 v 0.009 c -0.1301,0.361 -0.25,0.701 -0.3598,1.04 l -0.0101,0.021 c -0.1301,0.39 -0.25,0.77 -0.3602,1.14 -0.15,0.48 -0.2797,0.95 -0.4,1.4 -0.0398,0.12 -0.0699,0.25 -0.1,0.37 -0.0297,0.13 -0.0695,0.25 -0.1,0.38 -0.3699,1.399 -0.6098,2.649 -0.7797,3.63 -0.25,1.439 -0.3301,2.319 -0.3301,2.319 0,0 0.5098,0.281 1.4696,0.721 0.2105,0.09 0.4406,0.189 0.7004,0.3 0.43,0.179 0.9101,0.38 1.45,0.58 0.5,0.2 1.05,0.389 1.6398,0.599 l 0.2602,0.09 c 2.8,0.941 6.5601,1.941 10.98,2.45 l 0.25,0.031 c 1.1098,0.13 2.2598,0.219 3.4301,0.269 0.1996,0.011 0.3899,0.021 0.5899,0.021 0.9,0.04 1.8199,0.059 2.75,0.03 1.1297,-0.02 2.2199,-0.08 3.2802,-0.16 h 0.02 c 1.69,-0.12 3.32,-0.33 4.86,-0.57 1.84,-0.3 3.55,-0.651 5.1,-1.031 1.06,-0.25 2.03,-0.509 2.939,-0.779 0.25,-0.07 0.5,-0.15 0.75,-0.221 0.591,-0.179 1.141,-0.359 1.661,-0.529 0.23,-0.08 0.46,-0.16 0.67,-0.23 0.419,-0.15 0.8,-0.29 1.149,-0.42 0.25,-0.1 0.481,-0.191 0.701,-0.281 l 0.21,-0.08 c 1.339,-0.54 2.06,-0.899 2.06,-0.899"
         style="fill:#281b1e;fill-opacity:1;fill-rule:nonzero;stroke:none;stroke-width:0.1"
         id="path2627" /><path
         d="m 243.79895,321.86772 c -0.553,0.062 -1.065,0.011 -1.505,-0.112 -0.553,0.164 -1.116,0.133 -1.679,-0.082 -3.93,-1.453 -6.724,-10.817 -6.754,-10.91 -0.041,-0.164 -0.195,-0.276 -0.359,-0.276 l -0.113,0.02 c -0.204,0.062 -0.317,0.267 -0.256,0.471 0.113,0.399 2.928,9.825 7.216,11.412 1.126,0.42 2.262,0.276 3.357,-0.441 l 0.093,-0.082"
         style="fill:#281b1e;fill-opacity:1;fill-rule:nonzero;stroke:none;stroke-width:0.1"
         id="path2629" /><path
         d="m 239.21295,303.05672 c -3.408,-2.323 -6.294,-3.704 -6.325,-3.725 l -0.164,-0.041 c -0.143,0 -0.286,0.082 -0.348,0.225 -0.092,0.184 -0.01,0.42 0.185,0.512 0.02,0.01 2.118,1.023 4.83,2.743 0.594,0.082 1.239,0.184 1.822,0.286"
         style="fill:#281b1e;fill-opacity:1;fill-rule:nonzero;stroke:none;stroke-width:0.1"
         id="path2631" /><path
         d="m 191.29395,310.08772 -0.1222,-0.01 c -0.1645,0 -0.3075,0.092 -0.3586,0.256 -1.1055,3.285 -4.6774,11.934 -7.9114,12.537 -0.4914,0.093 -0.9621,0 -1.4226,-0.297 -0.5629,-0.091 -1.0543,-0.295 -1.4633,-0.532 -0.0101,0.103 0.0102,0.205 0.0816,0.287 0.8907,1.065 1.8731,1.494 2.9375,1.3 4.3497,-0.808 8.3309,-12.548 8.5051,-13.05 0.0614,-0.204 -0.041,-0.419 -0.2461,-0.491"
         style="fill:#281b1e;fill-opacity:1;fill-rule:nonzero;stroke:none;stroke-width:0.1"
         id="path2633" /><path
         d="m 192.43035,299.70972 c -0.0618,-0.142 -0.2047,-0.224 -0.3379,-0.224 l -0.1739,0.041 c -0.0308,0.02 -3.3363,1.617 -7.0414,4.216 l -0.1535,0.215 c 0.5426,-0.174 1.1664,-0.297 1.7606,-0.379 3.1519,-2.088 5.7414,-3.346 5.7718,-3.357 0.1844,-0.092 0.2661,-0.327 0.1743,-0.512"
         style="fill:#281b1e;fill-opacity:1;fill-rule:nonzero;stroke:none;stroke-width:0.1"
         id="path2635" /><path
         d="m 209.46935,307.38572 c -0.2074,0 -0.375,0.168 -0.375,0.375 v 4.772 c 0,0.207 0.1676,0.375 0.375,0.375 0.2067,0 0.375,-0.168 0.375,-0.375 v -4.772 c 0,-0.207 -0.1683,-0.375 -0.375,-0.375"
         style="fill:#a3d3c4;fill-opacity:1;fill-rule:nonzero;stroke:none;stroke-width:0.1"
         id="path2637" /><path
         d="m 211.83075,309.92372 h -4.8512 c -0.2071,0 -0.375,0.168 -0.375,0.375 0,0.207 0.1679,0.375 0.375,0.375 h 4.8512 c 0.207,0 0.375,-0.168 0.375,-0.375 0,-0.207 -0.168,-0.375 -0.375,-0.375"
         style="fill:#a3d3c4;fill-opacity:1;fill-rule:nonzero;stroke:none;stroke-width:0.1"
         id="path2639" /><path
         d="m 216.26695,300.58772 c -0.207,0 -0.3753,0.168 -0.3753,0.375 v 4.773 c 0,0.207 0.1683,0.375 0.3753,0.375 0.207,0 0.375,-0.168 0.375,-0.375 v -4.773 c 0,-0.207 -0.168,-0.375 -0.375,-0.375"
         style="fill:#a3d3c4;fill-opacity:1;fill-rule:nonzero;stroke:none;stroke-width:0.1"
         id="path2641" /><path
         d="m 218.62895,303.12572 h -4.851 c -0.2074,0 -0.375,0.168 -0.375,0.375 0,0.207 0.1676,0.375 0.375,0.375 h 4.851 c 0.207,0 0.375,-0.168 0.375,-0.375 0,-0.207 -0.168,-0.375 -0.375,-0.375"
         style="fill:#a3d3c4;fill-opacity:1;fill-rule:nonzero;stroke:none;stroke-width:0.1"
         id="path2643" /><path
         d="m 221.05395,306.84272 c -0.207,0 -0.375,0.168 -0.375,0.375 v 4.772 c 0,0.207 0.168,0.375 0.375,0.375 0.207,0 0.375,-0.168 0.375,-0.375 v -4.772 c 0,-0.207 -0.168,-0.375 -0.375,-0.375"
         style="fill:#a3d3c4;fill-opacity:1;fill-rule:nonzero;stroke:none;stroke-width:0.1"
         id="path2645" /><path
         d="m 223.41595,309.38172 h -4.851 c -0.207,0 -0.375,0.168 -0.375,0.375 0,0.207 0.168,0.375 0.375,0.375 h 4.851 c 0.207,0 0.375,-0.168 0.375,-0.375 0,-0.207 -0.168,-0.375 -0.375,-0.375"
         style="fill:#a3d3c4;fill-opacity:1;fill-rule:nonzero;stroke:none;stroke-width:0.1"
         id="path2647" /><path
         d="m 229.69595,312.28672 v -3.439 c 0,-0.21 -0.169,-0.38 -0.379,-0.38 -0.2,0 -0.371,0.17 -0.371,0.38 v 3.66 c 0.25,-0.07 0.5,-0.15 0.75,-0.221"
         style="fill:#a3d3c4;fill-opacity:1;fill-rule:nonzero;stroke:none;stroke-width:0.1"
         id="path2649" /><path
         d="m 231.68195,311.00972 h -4.851 c -0.207,0 -0.375,0.168 -0.375,0.375 0,0.207 0.168,0.375 0.375,0.375 h 4.851 c 0.207,0 0.375,-0.168 0.375,-0.375 0,-0.207 -0.168,-0.375 -0.375,-0.375"
         style="fill:#a3d3c4;fill-opacity:1;fill-rule:nonzero;stroke:none;stroke-width:0.1"
         id="path2651" /><path
         d="m 222.45795,294.39672 c -0.207,0 -0.375,0.168 -0.375,0.375 v 4.772 c 0,0.207 0.168,0.375 0.375,0.375 0.208,0 0.375,-0.168 0.375,-0.375 v -4.772 c 0,-0.207 -0.167,-0.375 -0.375,-0.375"
         style="fill:#a3d3c4;fill-opacity:1;fill-rule:nonzero;stroke:none;stroke-width:0.1"
         id="path2653" /><path
         d="m 224.81995,296.93472 h -4.851 c -0.207,0 -0.375,0.168 -0.375,0.375 0,0.207 0.168,0.375 0.375,0.375 h 4.851 c 0.207,0 0.375,-0.168 0.375,-0.375 0,-0.207 -0.168,-0.375 -0.375,-0.375"
         style="fill:#a3d3c4;fill-opacity:1;fill-rule:nonzero;stroke:none;stroke-width:0.1"
         id="path2655" /><path
         d="m 228.13895,300.07672 c -0.206,0 -0.375,0.168 -0.375,0.375 v 4.773 c 0,0.207 0.169,0.375 0.375,0.375 0.207,0 0.375,-0.168 0.375,-0.375 v -4.773 c 0,-0.207 -0.168,-0.375 -0.375,-0.375"
         style="fill:#a3d3c4;fill-opacity:1;fill-rule:nonzero;stroke:none;stroke-width:0.1"
         id="path2657" /><path
         d="m 230.50095,302.61472 h -4.851 c -0.207,0 -0.375,0.168 -0.375,0.375 0,0.207 0.168,0.375 0.375,0.375 h 4.851 c 0.207,0 0.375,-0.168 0.375,-0.375 0,-0.207 -0.168,-0.375 -0.375,-0.375"
         style="fill:#a3d3c4;fill-opacity:1;fill-rule:nonzero;stroke:none;stroke-width:0.1"
         id="path2659" /><path
         d="m 236.07695,309.24672 v 0.021 c -0.05,0.13 -0.18,0.229 -0.34,0.229 -0.21,0 -0.38,-0.17 -0.38,-0.38 v -1.859 -0.75 -0.46 c 0.05,0.159 0.089,0.31 0.13,0.46 0.07,0.27 0.14,0.52 0.189,0.75 l 0.401,1.989"
         style="fill:#a3d3c4;fill-opacity:1;fill-rule:nonzero;stroke:none;stroke-width:0.1"
         id="path2661" /><path
         d="m 235.67595,307.25772 c -0.049,-0.23 -0.119,-0.48 -0.189,-0.75 h -2.24 c -0.21,0 -0.38,0.17 -0.38,0.38 0,0.2 0.17,0.37 0.38,0.37 h 2.429"
         style="fill:#a3d3c4;fill-opacity:1;fill-rule:nonzero;stroke:none;stroke-width:0.1"
         id="path2663" /><path
         d="m 228.54695,291.96772 v 1.859 c 0,0.21 -0.17,0.38 -0.38,0.38 -0.201,0 -0.37,-0.17 -0.37,-0.38 v -1.859 -0.28 -0.47 l 0.75,0.75"
         style="fill:#a3d3c4;fill-opacity:1;fill-rule:nonzero;stroke:none;stroke-width:0.1"
         id="path2665" /><path
         d="m 228.54695,291.96772 h -2.86 c -0.21,0 -0.38,-0.16 -0.38,-0.37 0,-0.21 0.17,-0.38 0.38,-0.38 h 1.66 0.45 l 0.75,0.75"
         style="fill:#a3d3c4;fill-opacity:1;fill-rule:nonzero;stroke:none;stroke-width:0.1"
         id="path2667" /><path
         d="m 197.97955,307.38572 c -0.2071,0 -0.375,0.168 -0.375,0.375 v 4.772 c 0,0.207 0.1679,0.375 0.375,0.375 0.2078,0 0.375,-0.168 0.375,-0.375 v -4.772 c 0,-0.207 -0.1672,-0.375 -0.375,-0.375"
         style="fill:#a3d3c4;fill-opacity:1;fill-rule:nonzero;stroke:none;stroke-width:0.1"
         id="path2669" /><path
         d="m 200.34165,309.92372 h -4.8508 c -0.2074,0 -0.375,0.168 -0.375,0.375 0,0.207 0.1676,0.375 0.375,0.375 h 4.8508 c 0.2074,0 0.375,-0.168 0.375,-0.375 0,-0.207 -0.1676,-0.375 -0.375,-0.375"
         style="fill:#a3d3c4;fill-opacity:1;fill-rule:nonzero;stroke:none;stroke-width:0.1"
         id="path2671" /><path
         d="m 204.77795,300.58772 c -0.2074,0 -0.375,0.168 -0.375,0.375 v 4.773 c 0,0.207 0.1676,0.375 0.375,0.375 0.2067,0 0.375,-0.168 0.375,-0.375 v -4.773 c 0,-0.207 -0.1683,-0.375 -0.375,-0.375"
         style="fill:#a3d3c4;fill-opacity:1;fill-rule:nonzero;stroke:none;stroke-width:0.1"
         id="path2673" /><path
         d="m 207.13925,303.12572 h -4.8511 c -0.2067,0 -0.375,0.168 -0.375,0.375 0,0.207 0.1683,0.375 0.375,0.375 h 4.8511 c 0.2071,0 0.375,-0.168 0.375,-0.375 0,-0.207 -0.1679,-0.375 -0.375,-0.375"
         style="fill:#a3d3c4;fill-opacity:1;fill-rule:nonzero;stroke:none;stroke-width:0.1"
         id="path2675" /><path
         d="m 210.96935,294.39672 c -0.2074,0 -0.375,0.168 -0.375,0.375 v 4.772 c 0,0.207 0.1676,0.375 0.375,0.375 0.2067,0 0.375,-0.168 0.375,-0.375 v -4.772 c 0,-0.207 -0.1683,-0.375 -0.375,-0.375"
         style="fill:#a3d3c4;fill-opacity:1;fill-rule:nonzero;stroke:none;stroke-width:0.1"
         id="path2677" /><path
         d="m 213.33075,296.93472 h -4.8512 c -0.2071,0 -0.375,0.168 -0.375,0.375 0,0.207 0.1679,0.375 0.375,0.375 h 4.8512 c 0.207,0 0.375,-0.168 0.375,-0.375 0,-0.207 -0.168,-0.375 -0.375,-0.375"
         style="fill:#a3d3c4;fill-opacity:1;fill-rule:nonzero;stroke:none;stroke-width:0.1"
         id="path2679" /><path
         d="m 216.68195,288.68372 c -0.207,0 -0.375,0.168 -0.375,0.375 v 4.772 c 0,0.207 0.168,0.375 0.375,0.375 0.207,0 0.375,-0.168 0.375,-0.375 v -4.772 c 0,-0.207 -0.168,-0.375 -0.375,-0.375"
         style="fill:#a3d3c4;fill-opacity:1;fill-rule:nonzero;stroke:none;stroke-width:0.1"
         id="path2681" /><path
         d="m 219.04395,291.22172 h -4.8515 c -0.2067,0 -0.375,0.168 -0.375,0.375 0,0.207 0.1683,0.375 0.375,0.375 h 4.8515 c 0.207,0 0.375,-0.168 0.375,-0.375 0,-0.207 -0.168,-0.375 -0.375,-0.375"
         style="fill:#a3d3c4;fill-opacity:1;fill-rule:nonzero;stroke:none;stroke-width:0.1"
         id="path2683" /><path
         d="m 191.30925,300.71472 c -0.2067,0 -0.375,0.168 -0.375,0.375 v 4.773 c 0,0.208 0.1683,0.375 0.375,0.375 0.207,0 0.375,-0.167 0.375,-0.375 v -4.773 c 0,-0.207 -0.168,-0.375 -0.375,-0.375"
         style="fill:#a3d3c4;fill-opacity:1;fill-rule:nonzero;stroke:none;stroke-width:0.1"
         id="path2685" /><path
         d="m 194.04675,303.62772 c 0,-0.211 -0.1703,-0.37 -0.3801,-0.37 h -3.1301 c -0.0398,0.12 -0.0699,0.25 -0.1,0.37 -0.0297,0.13 -0.0695,0.25 -0.1,0.38 h 3.3301 c 0.2098,0 0.3801,-0.17 0.3801,-0.38"
         style="fill:#a3d3c4;fill-opacity:1;fill-rule:nonzero;stroke:none;stroke-width:0.1"
         id="path2687" /><path
         d="m 198.10765,293.91672 c -0.2074,0 -0.375,0.168 -0.375,0.375 v 4.774 c 0,0.207 0.1676,0.375 0.375,0.375 0.2063,0 0.375,-0.168 0.375,-0.375 v -4.774 c 0,-0.207 -0.1687,-0.375 -0.375,-0.375"
         style="fill:#a3d3c4;fill-opacity:1;fill-rule:nonzero;stroke:none;stroke-width:0.1"
         id="path2689" /><path
         d="m 200.46935,296.45572 h -4.8515 c -0.2067,0 -0.375,0.168 -0.375,0.375 0,0.207 0.1683,0.375 0.375,0.375 h 4.8515 c 0.2067,0 0.375,-0.168 0.375,-0.375 0,-0.207 -0.1683,-0.375 -0.375,-0.375"
         style="fill:#a3d3c4;fill-opacity:1;fill-rule:nonzero;stroke:none;stroke-width:0.1"
         id="path2691" /><path
         d="m 204.29945,287.72572 c -0.2074,0 -0.375,0.168 -0.375,0.375 v 4.773 c 0,0.207 0.1676,0.375 0.375,0.375 0.2066,0 0.375,-0.168 0.375,-0.375 v -4.773 c 0,-0.207 -0.1684,-0.375 -0.375,-0.375"
         style="fill:#a3d3c4;fill-opacity:1;fill-rule:nonzero;stroke:none;stroke-width:0.1"
         id="path2693" /><path
         d="m 206.66035,290.26472 h -4.8511 c -0.2067,0 -0.375,0.168 -0.375,0.375 0,0.207 0.1683,0.375 0.375,0.375 h 4.8511 c 0.2071,0 0.375,-0.168 0.375,-0.375 0,-0.207 -0.1679,-0.375 -0.375,-0.375"
         style="fill:#a3d3c4;fill-opacity:1;fill-rule:nonzero;stroke:none;stroke-width:0.1"
         id="path2695" /><path
         d="m 210.38695,287.15672 v -3.139 c -0.25,0 -0.5,0.01 -0.75,0.019 v 3.12 c 0,0.21 0.1699,0.38 0.3695,0.38 0.2102,0 0.3805,-0.17 0.3805,-0.38"
         style="fill:#a3d3c4;fill-opacity:1;fill-rule:nonzero;stroke:none;stroke-width:0.1"
         id="path2697" /><path
         d="m 212.37365,284.55172 h -4.8515 c -0.2067,0 -0.375,0.168 -0.375,0.375 0,0.207 0.1683,0.375 0.375,0.375 h 4.8515 c 0.2067,0 0.375,-0.168 0.375,-0.375 0,-0.207 -0.1683,-0.375 -0.375,-0.375"
         style="fill:#a3d3c4;fill-opacity:1;fill-rule:nonzero;stroke:none;stroke-width:0.1"
         id="path2699" /><path
         d="m 198.68185,279.27872 c 0,0 -1.7445,-7.798 -1.234,-9.331 0.5821,-1.747 9.7239,-3.372 11.5957,-7.287 1.8727,-3.915 3.7446,-14.128 3.7446,-14.128 0,0 4.4258,17.362 7.1488,18.724 2.724,1.361 6.852,5.706 6.351,6.787 -0.606,1.309 -1.372,5.617 -1.372,5.617 0,0 3.277,-2.873 4.468,-4.915 1.191,-2.043 5.702,-5.958 5.702,-5.958 l -6.638,-14.807 -2.894,6.978 -12.7658,-31.489 -14.2129,29.531 -7.4035,-8.085 -0.4684,15.15 7.9785,13.213"
         style="fill:#666666;fill-opacity:1;fill-rule:nonzero;stroke:none;stroke-width:0.1"
         id="path2701" /><path
         d="m 221.53795,266.75672 c 0.001,-10e-4 0.275,-0.374 0.723,-1.052 1.345,-2.033 4.244,-6.781 5.897,-12.187 l 0.106,-0.087 0.122,0.061 c 0.002,0.004 4.346,7.497 6.819,15.258 l -0.081,0.157 -0.157,-0.081 c -1.231,-3.863 -2.931,-7.667 -4.323,-10.503 -0.695,-1.419 -1.314,-2.595 -1.759,-3.417 -0.445,-0.822 -0.714,-1.287 -0.715,-1.288 l 0.108,-0.063 0.12,0.036 c -2.222,7.259 -6.654,13.308 -6.658,13.314 l -0.175,0.027 -0.027,-0.175"
         style="fill:#281b1e;fill-opacity:1;fill-rule:nonzero;stroke:none;stroke-width:0.1"
         id="path2703" /><path
         d="m 191.26425,250.83172 12.2547,13.533 -0.009,0.176 -0.1765,-0.009 -12.2551,-13.532 0.009,-0.176 0.1765,0.008"
         style="fill:#281b1e;fill-opacity:1;fill-rule:nonzero;stroke:none;stroke-width:0.1"
         id="path2705" /><path
         d="m 212.74865,249.29972 -0.0855,-19.83 0.1246,-0.125 0.1254,0.124 0.0855,19.83 -0.1246,0.125 -0.1254,-0.124"
         style="fill:#281b1e;fill-opacity:1;fill-rule:nonzero;stroke:none;stroke-width:0.1"
         id="path2707" /><path
         d="m 182.04785,185.34583 9.8723,-1.3621 0.1406,0.107 -0.1066,0.1399 -9.8719,1.3633 -0.141,-0.1071 0.1066,-0.141"
         style="fill:#281b1e;fill-opacity:1;fill-rule:nonzero;stroke:none;stroke-width:0.1"
         id="path2709" /><path
         d="m 179.34165,196.61773 c 0,0 6.468,3.2351 9.1914,3.575 2.7234,0.3398 5.7875,-1.4469 5.7875,-1.4469 l -2.4684,-14.5101 -10.0531,1.4359 -2.4574,10.9461"
         style="fill:#f2f2f2;fill-opacity:1;fill-rule:nonzero;stroke:none;stroke-width:0.1"
         id="path2711" /><path
         d="m 163.06465,249.06372 c 4e-4,-10e-4 0.1078,-0.176 0.3078,-0.533 1.3997,-2.498 7.2965,-13.824 11.7618,-34.662 5.107,-23.83109 7.4902,-32.34399 7.491,-32.34789 l 0.1543,-0.0859 0.0867,0.1539 c -8e-4,8e-4 -0.1484,0.5301 -0.4516,1.6988 -0.9089,3.509 -3.2062,12.7621 -7.0359,30.63309 -5.1098,23.845 -12.0941,35.263 -12.1008,35.273 l -0.1719,0.042 -0.0414,-0.172"
         style="fill:#281b1e;fill-opacity:1;fill-rule:nonzero;stroke:none;stroke-width:0.1"
         id="path2713" /><path
         d="m 254.79395,249.83772 c 0,-0.005 -8.188,-34.939 -8.189,-56.01609 0,-1.1797 0.026,-2.316 0.08,-3.4008 l 0.131,-0.1191 0.119,0.1312 c -0.054,1.0797 -0.08,2.2129 -0.08,3.3887 0,10.5101 2.045,24.50409 4.091,35.86509 1.023,5.682 2.046,10.705 2.813,14.309 0.384,1.801 0.704,3.248 0.927,4.244 0.224,0.996 0.352,1.54 0.352,1.541 l -0.093,0.15 -0.151,-0.093"
         style="fill:#281b1e;fill-opacity:1;fill-rule:nonzero;stroke:none;stroke-width:0.1"
         id="path2715" /><path
         d="m 252.91395,188.27983 c -21.473,7.066 -58.3004,10.5699 -58.3051,10.5719 l -0.1375,-0.1071 -2.4895,-15.3507 0.0508,-0.1243 c 0.002,-7e-4 8.9898,-6.5418 20.2109,-13.3187 11.2244,-6.7762 24.6694,-13.7922 33.6374,-14.7383 2.861,-0.3019 5.291,-0.4269 7.356,-0.4269 10.475,-0.006 11.567,3.255 11.588,3.3269 l -0.084,0.159 -0.159,-0.084 -0.01,-0.0238 c -0.121,-0.2891 -1.55,-3.1211 -11.335,-3.1242 -2.055,0 -4.476,0.125 -7.329,0.4261 -8.876,0.9301 -22.325,7.9321 -33.5327,14.7032 -5.6055,3.3847 -10.6543,6.7117 -14.3012,9.1929 -1.8234,1.2399 -3.2969,2.2688 -4.3137,2.9879 -1.0171,0.718 -1.5761,1.125 -1.5781,1.1262 l -0.0746,-0.1031 0.1254,-0.02 2.4894,15.3508 -0.1257,0.0211 -0.0121,-0.1269 c 10e-4,0 0.575,-0.0551 1.6234,-0.1641 7.3383,-0.7668 37.8819,-4.2258 56.6259,-10.3949 l 0.161,0.0808 -0.081,0.1602"
         style="fill:#281b1e;fill-opacity:1;fill-rule:nonzero;stroke:none;stroke-width:0.1"
         id="path2717" /><path
         d="m 246.68495,155.28253 c 5.259,10.1102 14.434,18.1223 25.159,21.9723 l 0.077,0.1629 -0.163,0.0769 c -10.787,-3.8738 -20.009,-11.9257 -25.299,-22.0937 l 0.054,-0.1723 0.172,0.0539"
         style="fill:#281b1e;fill-opacity:1;fill-rule:nonzero;stroke:none;stroke-width:0.1"
         id="path2719" /><path
         d="m 177.58575,149.94463 47.8292,12.4243 0.09,0.1527 -0.152,0.0891 -47.8301,-12.4239 -0.0894,-0.1531 0.1523,-0.0891"
         style="fill:#281b1e;fill-opacity:1;fill-rule:nonzero;stroke:none;stroke-width:0.1"
         id="path2721" /><path
         d="m 162.92955,149.78963 c 0.0289,-0.02 1.1996,-0.802 5.1629,-0.802 2.2472,0 5.3925,0.2512 9.7398,1.0371 l 0.1027,0.1481 -0.148,0.1031 c -4.3352,-0.784 -7.4664,-1.034 -9.6945,-1.034 -1.9653,0 -3.2278,0.1949 -3.995,0.3859 -0.3835,0.0957 -0.6433,0.1918 -0.8054,0.2618 l -0.1731,0.0832 -0.0461,0.0269 -0.1769,-0.034 0.0336,-0.1761"
         style="fill:#281b1e;fill-opacity:1;fill-rule:nonzero;stroke:none;stroke-width:0.1"
         id="path2723" /><path
         d="m 152.27525,169.23173 c 1.0172,-0.1351 2.0078,-0.4468 2.9801,-0.807 8.614,-3.1898 15.6984,-10.291 18.8679,-18.9121 l 0.1633,-0.0758 0.0758,0.1641 c -3.1977,8.693 -10.332,15.8437 -19.0188,19.0629 -0.98,0.3621 -1.9882,0.6808 -3.0347,0.8211 l -0.143,-0.1102 0.1094,-0.143"
         style="fill:#281b1e;fill-opacity:1;fill-rule:nonzero;stroke:none;stroke-width:0.1"
         id="path2725" /></g></g></svg>
