<?xml version="1.0" encoding="UTF-8" standalone="no"?>
<svg
   xmlns:dc="http://purl.org/dc/elements/1.1/"
   xmlns:cc="http://creativecommons.org/ns#"
   xmlns:rdf="http://www.w3.org/1999/02/22-rdf-syntax-ns#"
   xmlns:svg="http://www.w3.org/2000/svg"
   xmlns="http://www.w3.org/2000/svg"
   xmlns:sodipodi="http://sodipodi.sourceforge.net/DTD/sodipodi-0.dtd"
   xmlns:inkscape="http://www.inkscape.org/namespaces/inkscape"
   version="1.1"
   id="svg2"
   xml:space="preserve"
   width="666.66669"
   height="666.66669"
   viewBox="0 0 666.66669 666.66669"
   sodipodi:docname="profile.svg"
   inkscape:version="1.0.2 (e86c870879, 2021-01-15)"><metadata
     id="metadata8"><rdf:RDF><cc:Work
         rdf:about=""><dc:format>image/svg+xml</dc:format><dc:type
           rdf:resource="http://purl.org/dc/dcmitype/StillImage" /><dc:title></dc:title></cc:Work></rdf:RDF></metadata><defs
     id="defs6"><mask
       maskUnits="userSpaceOnUse"
       id="mask1617"><circle
         style="fill:#f1f0ec;fill-opacity:1;stroke-width:6.53734;stroke-linecap:round"
         id="circle1619"
         cx="360.57611"
         cy="-297.20773"
         r="58.29491"
         transform="scale(1,-1)" /></mask><mask
       maskUnits="userSpaceOnUse"
       id="mask1621"><circle
         style="fill:#f1f0ec;fill-opacity:1;stroke-width:6.53734;stroke-linecap:round"
         id="circle1623"
         cx="361.3024"
         cy="-332.17224"
         r="58.29491"
         transform="scale(1,-1)" /></mask><clipPath
       clipPathUnits="userSpaceOnUse"
       id="clipPath2034"><circle
         style="fill:#f1f0ec;fill-opacity:1;stroke-width:6.53734;stroke-linecap:round"
         id="circle2036"
         cx="349.40723"
         cy="-323.50235"
         r="58.29491"
         transform="scale(1,-1)" /></clipPath><mask
       maskUnits="userSpaceOnUse"
       id="mask2102"><path
         id="path2104"
         style="fill:#f1f0ec;fill-opacity:1;stroke-width:6.53734;stroke-linecap:round"
         d="m 348.8206,429.63656 a 58.294914,58.294914 0 0 1 -58.29492,-58.29492 58.294914,58.294914 0 0 1 5.43164,-24.57129 58.294914,58.294914 0 0 1 -4.8457,-23.26758 58.294914,58.294914 0 0 1 58.29492,-58.29492 58.294914,58.294914 0 0 1 58.29492,58.29492 58.294914,58.294914 0 0 1 -5.43017,24.56983 58.294914,58.294914 0 0 1 4.84423,23.26904 58.294914,58.294914 0 0 1 -58.29492,58.29492 z" /></mask></defs><sodipodi:namedview
     pagecolor="#ffffff"
     bordercolor="#666666"
     borderopacity="1"
     objecttolerance="10"
     gridtolerance="10"
     guidetolerance="10"
     inkscape:pageopacity="0"
     inkscape:pageshadow="2"
     inkscape:window-width="1920"
     inkscape:window-height="1080"
     id="namedview4"
     showgrid="false"
     inkscape:zoom="0.47249999"
     inkscape:cx="434.44262"
     inkscape:cy="387.98361"
     inkscape:window-x="0"
     inkscape:window-y="0"
     inkscape:window-maximized="0"
     inkscape:current-layer="g10" /><g
     id="g10"
     inkscape:groupmode="layer"
     inkscape:label="ink_ext_XXXXXX"
     transform="matrix(1.3333333,0,0,-1.3333333,0,666.66667)"><ellipse
       style="fill:#f1f0ec;fill-opacity:1;stroke-width:24.742;stroke-linecap:round"
       id="path2106"
       cx="240.03619"
       cy="-376.83524"
       transform="scale(1,-1)"
       rx="71.686134"
       ry="26.799559" /><circle
       style="fill:#f1f0ec;fill-opacity:1;stroke-width:19.2447;stroke-linecap:round"
       id="path1377"
       cx="240.62581"
       cy="-215.28944"
       r="171.60934"
       transform="scale(1,-1)" /><g
       id="g1922"
       transform="matrix(2.9438134,0,0,2.9438134,-787.96388,-737.04117)"
       mask="url(#mask2102)"><g
         id="g1559"
         transform="translate(-11.168883,27.149347)"
         mask="url(#mask1617)"><path
           d="m 301.71061,242.8709 c 0,13.697 9.655,23.927 17.192,29.827 3.948,3.09 8.417,5.424 13.183,6.978 4.087,1.333 9.914,3.847 12.453,7.886 0,0 13.941,-13.953 32.074,0 0,0 8.366,-6.553 12.454,-7.886 4.766,-1.554 9.234,-3.888 13.183,-6.978 7.537,-5.9 17.192,-16.13 17.192,-29.827"
           style="fill:none;stroke:#1e1c20;stroke-width:1.1491;stroke-linecap:round;stroke-linejoin:round;stroke-miterlimit:10;stroke-dasharray:none;stroke-opacity:1"
           id="path1507" /><g
           id="g1557"><path
             d="m 352.99432,314.65253 c 0,0 3.517,-2.455 7.778,-2.455 4.262,0 7.207,2.455 7.207,2.455"
             style="fill:none;stroke:#1e1c20;stroke-width:1.08238;stroke-linecap:round;stroke-linejoin:round;stroke-miterlimit:10;stroke-dasharray:none;stroke-opacity:1"
             id="path1509" /><path
             d="m 336.70761,333.2099 c 0,0 -2.429,3.51 -5.311,1.808 -2.882,-1.703 -1.965,-7.991 0,-11.134 1.965,-3.144 5.136,-4.698 6.891,-2.284"
             style="fill:none;stroke:#1e1c20;stroke-width:1.1491;stroke-linecap:butt;stroke-linejoin:miter;stroke-miterlimit:10;stroke-dasharray:none;stroke-opacity:1"
             id="path1511" /><path
             d="m 331.71161,331.0869 c 0,0 3.248,1.084 5.552,-3.698"
             style="fill:none;stroke:#1e1c20;stroke-width:0.574549;stroke-linecap:round;stroke-linejoin:round;stroke-miterlimit:10;stroke-dasharray:none;stroke-opacity:1"
             id="path1513" /><path
             d="m 335.68761,329.7289 c 0,0 -3.533,-1.89 -1.199,-4.731"
             style="fill:none;stroke:#1e1c20;stroke-width:0.574549;stroke-linecap:round;stroke-linejoin:round;stroke-miterlimit:10;stroke-dasharray:none;stroke-opacity:1"
             id="path1515" /><path
             d="m 383.45761,341.1029 c 0,0 2.882,-42.916 -23.062,-42.916 -25.944,0 -23.863,42.916 -23.863,42.916 0,0 -1.252,25.523 24.741,25.523 24.194,0 22.184,-25.523 22.184,-25.523 z"
             style="fill:none;stroke:#1e1c20;stroke-width:1.1491;stroke-linecap:butt;stroke-linejoin:miter;stroke-miterlimit:10;stroke-dasharray:none;stroke-opacity:1"
             id="path1517" /><path
             d="m 358.86661,335.4429 v -10.997 c 0,-0.28 0.054,-0.548 0.152,-0.794 0.386,-0.966 1.497,-1.428 2.502,-1.161 l 2.161,0.575"
             style="fill:none;stroke:#1e1c20;stroke-width:1.08776;stroke-linecap:round;stroke-linejoin:round;stroke-miterlimit:10;stroke-dasharray:none;stroke-opacity:1"
             id="path1519" /><path
             d="m 355.54361,345.9329 c -0.156,-0.301 -0.887,-3.971 -0.887,-3.971 l -12.32,-1.353 3.921,2.83 c 1.002,0.647 2.119,1.096 3.289,1.324 l 5.997,1.17"
             style="fill:#1e1c20;fill-opacity:1;fill-rule:nonzero;stroke:none;stroke-width:0.1"
             id="path1521" /><path
             d="m 364.00561,345.9639 c 0.155,-0.301 0.869,-3.974 0.869,-3.974 l 12.313,-1.413 -3.908,2.85 c -0.999,0.651 -2.113,1.105 -3.282,1.339 l -5.992,1.198"
             style="fill:#1e1c20;fill-opacity:1;fill-rule:nonzero;stroke:none;stroke-width:0.1"
             id="path1523" /><path
             d="m 352.72161,335.3989 c 0,-1.188 -0.963,-2.152 -2.151,-2.152 -1.188,0 -2.15,0.964 -2.15,2.152 0,1.188 0.962,2.151 2.15,2.151 1.188,0 2.151,-0.963 2.151,-2.151"
             style="fill:#1e1c20;fill-opacity:1;fill-rule:nonzero;stroke:none;stroke-width:0.1"
             id="path1525" /><path
             d="m 372.76961,335.3989 c 0,-1.188 -0.964,-2.152 -2.151,-2.152 -1.189,0 -2.152,0.964 -2.152,2.152 0,1.188 0.963,2.151 2.152,2.151 1.187,0 2.151,-0.963 2.151,-2.151"
             style="fill:#1e1c20;fill-opacity:1;fill-rule:nonzero;stroke:none;stroke-width:0.1"
             id="path1527" /><path
             d="m 354.46961,333.2469 -5.349,-3.53"
             style="fill:none;stroke:#1e1c20;stroke-width:0.574549;stroke-linecap:round;stroke-linejoin:round;stroke-miterlimit:10;stroke-dasharray:none;stroke-opacity:1"
             id="path1529" /><path
             d="m 367.23061,332.8589 4.732,-3.566"
             style="fill:none;stroke:#1e1c20;stroke-width:0.574549;stroke-linecap:round;stroke-linejoin:round;stroke-miterlimit:10;stroke-dasharray:none;stroke-opacity:1"
             id="path1531" /><path
             d="m 383.45061,332.6349 c 0,0 2.428,3.511 5.31,1.808 2.882,-1.703 1.965,-7.99 0,-11.134 -1.965,-3.144 -5.136,-4.697 -6.89,-2.283"
             style="fill:none;stroke:#1e1c20;stroke-width:1.1491;stroke-linecap:butt;stroke-linejoin:miter;stroke-miterlimit:10;stroke-dasharray:none;stroke-opacity:1"
             id="path1533" /><path
             d="m 388.44461,330.5129 c 0,0 -3.247,1.083 -5.552,-3.698"
             style="fill:none;stroke:#1e1c20;stroke-width:0.574549;stroke-linecap:round;stroke-linejoin:round;stroke-miterlimit:10;stroke-dasharray:none;stroke-opacity:1"
             id="path1535" /><path
             d="m 384.46961,329.1539 c 0,0 3.534,-1.89 1.2,-4.73"
             style="fill:none;stroke:#1e1c20;stroke-width:0.574549;stroke-linecap:round;stroke-linejoin:round;stroke-miterlimit:10;stroke-dasharray:none;stroke-opacity:1"
             id="path1537" /><path
             d="m 365.27361,377.8499 c -14.584,-0.218 -19.81,-9.585 -19.971,-9.88 -0.015,-0.005 -0.033,-0.01 -0.049,-0.015 -0.563,0.205 -8.623,2.963 -12.542,-5.253 -3.357,-7.039 0.552,-20.022 2.009,-24.316 0.456,-1.94 0.953,-3.861 1.438,-5.724 l 2.191,15.454 c 0.257,1.808 0.878,3.535 1.808,5.09 1.168,1.912 5.819,8.44 12.564,3.92 7.373,-4.94 15.996,-12.46 28.425,-5.796 l 2.061,-19.848 c 1.161,3.611 2.166,7.221 2.825,10.703 v 0 c 9.231,27.672 -8.555,35.847 -20.759,35.665"
             style="fill:#1e1c20;fill-opacity:1;fill-rule:nonzero;stroke:none;stroke-width:0.1"
             id="path1539" /><path
             d="m 344.53861,305.6069 v -18.045"
             style="fill:none;stroke:#1e1c20;stroke-width:1.1491;stroke-linecap:round;stroke-linejoin:round;stroke-miterlimit:10;stroke-dasharray:none;stroke-opacity:1"
             id="path1541" /><path
             d="m 376.61261,306.5619 v -19"
             style="fill:none;stroke:#1e1c20;stroke-width:1.1491;stroke-linecap:round;stroke-linejoin:round;stroke-miterlimit:10;stroke-dasharray:none;stroke-opacity:1"
             id="path1543" /><path
             d="m 345.01261,305.1679 c 0,0 4.641,-9.212 12.148,-13.49 5.451,-3.105 12.502,-1.901 16.201,3.167 1.846,2.527 3.251,6.248 3.251,11.717 0,0 -6.011,-7.917 -14.974,-8.288 -8.963,-0.371 -16.626,6.894 -16.626,6.894"
             style="fill:#1e1c20;fill-opacity:1;fill-rule:nonzero;stroke:none;stroke-width:0.1"
             id="path1545" /><path
             d="m 338.33761,282.3019 c 0,0 17.811,-22.615 46.132,-0.27"
             style="fill:none;stroke:#1e1c20;stroke-width:1.1491;stroke-linecap:round;stroke-linejoin:round;stroke-miterlimit:10;stroke-dasharray:none;stroke-opacity:1"
             id="path1547" /><path
             d="m 312.07361,265.9679 h 97.127"
             style="fill:none;stroke:#1e1c20;stroke-width:1.1491;stroke-linecap:round;stroke-linejoin:round;stroke-miterlimit:10;stroke-dasharray:none;stroke-opacity:1"
             id="path1549" /><path
             d="m 302.39461,246.5419 h 116.484"
             style="fill:none;stroke:#1e1c20;stroke-width:1.1491;stroke-linecap:round;stroke-linejoin:round;stroke-miterlimit:10;stroke-dasharray:none;stroke-opacity:1"
             id="path1551" /><path
             d="m 305.38161,256.2549 h 110.864"
             style="fill:none;stroke:#1e1c20;stroke-width:1.1491;stroke-linecap:round;stroke-linejoin:round;stroke-miterlimit:10;stroke-dasharray:none;stroke-opacity:1"
             id="path1553" /><path
             d="m 302.39461,238.63265 h 116.484"
             style="fill:none;stroke:#1e1c20;stroke-width:1.1491;stroke-linecap:round;stroke-linejoin:round;stroke-miterlimit:10;stroke-dasharray:none;stroke-opacity:1"
             id="path1555" /></g></g><path
         d="m 290.54173,270.02025 c 0,13.697 9.655,23.927 17.192,29.827 3.948,3.09 8.417,5.424 13.183,6.978 4.087,1.333 9.914,3.847 12.453,7.886 0,0 13.941,-13.953 32.074,0 0,0 8.366,-6.553 12.454,-7.886 4.766,-1.554 9.234,-3.888 13.183,-6.978 7.537,-5.9 17.192,-16.13 17.192,-29.827"
         style="fill:none;stroke:#1e1c20;stroke-width:1.1491;stroke-linecap:round;stroke-linejoin:round;stroke-miterlimit:10;stroke-dasharray:none;stroke-opacity:1"
         id="path158" /><g
         id="g1475"
         transform="translate(-11.168883,27.149347)"><path
           d="m 352.99432,314.65253 c 0,0 3.517,-2.455 7.778,-2.455 4.262,0 7.207,2.455 7.207,2.455"
           style="fill:none;stroke:#1e1c20;stroke-width:1.08238;stroke-linecap:round;stroke-linejoin:round;stroke-miterlimit:10;stroke-dasharray:none;stroke-opacity:1"
           id="path54" /><path
           d="m 336.70761,333.2099 c 0,0 -2.429,3.51 -5.311,1.808 -2.882,-1.703 -1.965,-7.991 0,-11.134 1.965,-3.144 5.136,-4.698 6.891,-2.284"
           style="fill:none;stroke:#1e1c20;stroke-width:1.1491;stroke-linecap:butt;stroke-linejoin:miter;stroke-miterlimit:10;stroke-dasharray:none;stroke-opacity:1"
           id="path120" /><path
           d="m 331.71161,331.0869 c 0,0 3.248,1.084 5.552,-3.698"
           style="fill:none;stroke:#1e1c20;stroke-width:0.574549;stroke-linecap:round;stroke-linejoin:round;stroke-miterlimit:10;stroke-dasharray:none;stroke-opacity:1"
           id="path122" /><path
           d="m 335.68761,329.7289 c 0,0 -3.533,-1.89 -1.199,-4.731"
           style="fill:none;stroke:#1e1c20;stroke-width:0.574549;stroke-linecap:round;stroke-linejoin:round;stroke-miterlimit:10;stroke-dasharray:none;stroke-opacity:1"
           id="path124" /><path
           d="m 383.45761,341.1029 c 0,0 2.882,-42.916 -23.062,-42.916 -25.944,0 -23.863,42.916 -23.863,42.916 0,0 -1.252,25.523 24.741,25.523 24.194,0 22.184,-25.523 22.184,-25.523 z"
           style="fill:none;stroke:#1e1c20;stroke-width:1.1491;stroke-linecap:butt;stroke-linejoin:miter;stroke-miterlimit:10;stroke-dasharray:none;stroke-opacity:1"
           id="path126" /><path
           d="m 358.86661,335.4429 v -10.997 c 0,-0.28 0.054,-0.548 0.152,-0.794 0.386,-0.966 1.497,-1.428 2.502,-1.161 l 2.161,0.575"
           style="fill:none;stroke:#1e1c20;stroke-width:1.08776;stroke-linecap:round;stroke-linejoin:round;stroke-miterlimit:10;stroke-dasharray:none;stroke-opacity:1"
           id="path128" /><path
           d="m 355.54361,345.9329 c -0.156,-0.301 -0.887,-3.971 -0.887,-3.971 l -12.32,-1.353 3.921,2.83 c 1.002,0.647 2.119,1.096 3.289,1.324 l 5.997,1.17"
           style="fill:#1e1c20;fill-opacity:1;fill-rule:nonzero;stroke:none;stroke-width:0.1"
           id="path130" /><path
           d="m 364.00561,345.9639 c 0.155,-0.301 0.869,-3.974 0.869,-3.974 l 12.313,-1.413 -3.908,2.85 c -0.999,0.651 -2.113,1.105 -3.282,1.339 l -5.992,1.198"
           style="fill:#1e1c20;fill-opacity:1;fill-rule:nonzero;stroke:none;stroke-width:0.1"
           id="path132" /><path
           d="m 352.72161,335.3989 c 0,-1.188 -0.963,-2.152 -2.151,-2.152 -1.188,0 -2.15,0.964 -2.15,2.152 0,1.188 0.962,2.151 2.15,2.151 1.188,0 2.151,-0.963 2.151,-2.151"
           style="fill:#1e1c20;fill-opacity:1;fill-rule:nonzero;stroke:none;stroke-width:0.1"
           id="path134" /><path
           d="m 372.76961,335.3989 c 0,-1.188 -0.964,-2.152 -2.151,-2.152 -1.189,0 -2.152,0.964 -2.152,2.152 0,1.188 0.963,2.151 2.152,2.151 1.187,0 2.151,-0.963 2.151,-2.151"
           style="fill:#1e1c20;fill-opacity:1;fill-rule:nonzero;stroke:none;stroke-width:0.1"
           id="path136" /><path
           d="m 354.46961,333.2469 -5.349,-3.53"
           style="fill:none;stroke:#1e1c20;stroke-width:0.574549;stroke-linecap:round;stroke-linejoin:round;stroke-miterlimit:10;stroke-dasharray:none;stroke-opacity:1"
           id="path138" /><path
           d="m 367.23061,332.8589 4.732,-3.566"
           style="fill:none;stroke:#1e1c20;stroke-width:0.574549;stroke-linecap:round;stroke-linejoin:round;stroke-miterlimit:10;stroke-dasharray:none;stroke-opacity:1"
           id="path140" /><path
           d="m 383.45061,332.6349 c 0,0 2.428,3.511 5.31,1.808 2.882,-1.703 1.965,-7.99 0,-11.134 -1.965,-3.144 -5.136,-4.697 -6.89,-2.283"
           style="fill:none;stroke:#1e1c20;stroke-width:1.1491;stroke-linecap:butt;stroke-linejoin:miter;stroke-miterlimit:10;stroke-dasharray:none;stroke-opacity:1"
           id="path144" /><path
           d="m 388.44461,330.5129 c 0,0 -3.247,1.083 -5.552,-3.698"
           style="fill:none;stroke:#1e1c20;stroke-width:0.574549;stroke-linecap:round;stroke-linejoin:round;stroke-miterlimit:10;stroke-dasharray:none;stroke-opacity:1"
           id="path146" /><path
           d="m 384.46961,329.1539 c 0,0 3.534,-1.89 1.2,-4.73"
           style="fill:none;stroke:#1e1c20;stroke-width:0.574549;stroke-linecap:round;stroke-linejoin:round;stroke-miterlimit:10;stroke-dasharray:none;stroke-opacity:1"
           id="path148" /><path
           d="m 365.27361,377.8499 c -14.584,-0.218 -19.81,-9.585 -19.971,-9.88 -0.015,-0.005 -0.033,-0.01 -0.049,-0.015 -0.563,0.205 -8.623,2.963 -12.542,-5.253 -3.357,-7.039 0.552,-20.022 2.009,-24.316 0.456,-1.94 0.953,-3.861 1.438,-5.724 l 2.191,15.454 c 0.257,1.808 0.878,3.535 1.808,5.09 1.168,1.912 5.819,8.44 12.564,3.92 7.373,-4.94 15.996,-12.46 28.425,-5.796 l 2.061,-19.848 c 1.161,3.611 2.166,7.221 2.825,10.703 v 0 c 9.231,27.672 -8.555,35.847 -20.759,35.665"
           style="fill:#1e1c20;fill-opacity:1;fill-rule:nonzero;stroke:none;stroke-width:0.1"
           id="path150" /><path
           d="m 344.53861,305.6069 v -18.045"
           style="fill:none;stroke:#1e1c20;stroke-width:1.1491;stroke-linecap:round;stroke-linejoin:round;stroke-miterlimit:10;stroke-dasharray:none;stroke-opacity:1"
           id="path152" /><path
           d="m 376.61261,306.5619 v -19"
           style="fill:none;stroke:#1e1c20;stroke-width:1.1491;stroke-linecap:round;stroke-linejoin:round;stroke-miterlimit:10;stroke-dasharray:none;stroke-opacity:1"
           id="path154" /><path
           d="m 345.01261,305.1679 c 0,0 4.641,-9.212 12.148,-13.49 5.451,-3.105 12.502,-1.901 16.201,3.167 1.846,2.527 3.251,6.248 3.251,11.717 0,0 -6.011,-7.917 -14.974,-8.288 -8.963,-0.371 -16.626,6.894 -16.626,6.894"
           style="fill:#1e1c20;fill-opacity:1;fill-rule:nonzero;stroke:none;stroke-width:0.1"
           id="path156" /><path
           d="m 338.33761,282.3019 c 0,0 17.811,-22.615 46.132,-0.27"
           style="fill:none;stroke:#1e1c20;stroke-width:1.1491;stroke-linecap:round;stroke-linejoin:round;stroke-miterlimit:10;stroke-dasharray:none;stroke-opacity:1"
           id="path160" /><path
           d="m 312.07361,265.9679 h 97.127"
           style="fill:none;stroke:#1e1c20;stroke-width:1.1491;stroke-linecap:round;stroke-linejoin:round;stroke-miterlimit:10;stroke-dasharray:none;stroke-opacity:1"
           id="path162" /><path
           d="m 302.39461,246.5419 h 116.484"
           style="fill:none;stroke:#1e1c20;stroke-width:1.1491;stroke-linecap:round;stroke-linejoin:round;stroke-miterlimit:10;stroke-dasharray:none;stroke-opacity:1"
           id="path164" /><path
           d="m 305.38161,256.2549 h 110.864"
           style="fill:none;stroke:#1e1c20;stroke-width:1.1491;stroke-linecap:round;stroke-linejoin:round;stroke-miterlimit:10;stroke-dasharray:none;stroke-opacity:1"
           id="path166" /><path
           d="m 302.39461,238.63265 h 116.484"
           style="fill:none;stroke:#1e1c20;stroke-width:1.1491;stroke-linecap:round;stroke-linejoin:round;stroke-miterlimit:10;stroke-dasharray:none;stroke-opacity:1"
           id="path1379" /></g></g></g></svg>
